<svg height="512" viewBox="0 0 512.00001 512.00001" width="512" xmlns="http://www.w3.org/2000/svg" xmlns:xlink="http://www.w3.org/1999/xlink"><linearGradient id="a" gradientTransform="matrix(.74116396 -.37296585 .3300035 .76126555 21.611699 -402.89921)" gradientUnits="userSpaceOnUse" x1="-163.05635" x2="-192.61784" y1="973.8692" y2="870.60034"><stop offset="0" stop-color="#e33a4b"/><stop offset="1" stop-color="#d22436" stop-opacity=".54902"/></linearGradient><linearGradient id="b" gradientUnits="userSpaceOnUse" x1="262.10806334782" x2="124.74298036928" y1="379.28034658561" y2="243.20703082561"><stop offset="0" stop-color="#6f0102"/><stop offset="1" stop-color="#6f0102" stop-opacity="0"/></linearGradient><g transform="scale(1.1243142)"><circle cx="-227.69437" cy="227.69437" fill="#212121" r="227.69437" transform="scale(-1 1)"/><path d="m225.529 353.8682a242 190 0 0 0 -142.679686 37.2793 227.69437 227.69437 0 0 0 144.845706 52.24218 227.69437 227.69437 0 0 0 142.9375-50.69726 242 190 0 0 0 -145.10352-38.82422z" fill="#fff"/><path d="m117.76203 257.21491c20.58957 109.15876 82.14452 171.51919 194.58802 154.4054-34.2658-62.38511-.65613-93.01559 21.32662-133.52624l-63.41888-97.25942c-34.64468 37.89371-60.10813 77.75175-152.49576 76.38026z" fill="#212121"/><path d="m124.39975 256.03615c22.70508 100.4183 72.35391 162.49353 176.19956 147.44258-32.15899-58.54935 5.8085-89.82731 26.43964-127.84717l-52.10448-26.13246c-32.51457 35.56383-63.82751 7.82422-150.53472 6.53705z" fill="#ffb928"/><path d="m138.48048 261.90312c28.16401 96.3241 57.10021 141.95877 149.21149 135.70861-32.15899-58.54933 9.32868-91.00067 29.95982-129.02054l-51.07764-10.23458c-32.51456 35.56383-41.38646 4.83368-128.09367 3.54651z" fill="#212121"/><path d="m145.1182 263.1477c30.14911 94.00815 48.26885 131.38085 135.93604 130.31545-32.15898-58.54933 10.57326-88.92638 31.2044-126.94625l-42.18839-11.66442c-32.51456 35.56383-38.24483 9.58239-124.95205 8.29522z" fill="url(#b)"/><path d="m114.36684 257.20197c97.4819 59.51145 195.9644 61.3702 291.52411 44.86747-164.42826-114.67734-204.11617-60.24747-291.52411-44.86747z" fill="#212121"/><path d="m124.39975 256.03615c91.81156 53.23174 185.45837 53.2411 279.45829 43.01046-157.62278-109.93099-195.66806-57.7539-279.45829-43.01046z" fill="#ffb928"/><path d="m168.77705 322.69047c-.80036-.0218-1.55142.001-2.27344.0488 17.05787 39.22935 36.8984 60.65629 75.79883 67.90039 1.67984-8.23406-.66573-19.03959-9.98828-32.44336-13.60467-19.56051-46.75482-35.04858-63.53711-35.50585z" fill="url(#a)"/><path d="m306.9234 67.331085a85.511353 98.76561 0 0 0 -85.50976 98.765625 85.511353 98.76561 0 0 0 11.60351 49.43555h147.84375a85.511353 98.76561 0 0 0 11.57422-49.43555 85.511353 98.76561 0 0 0 -85.51172-98.765625z" fill="#212121"/><path d="m298.62653 68.991241a85.511353 98.76561 0 0 0 -85.51172 98.765629 85.511353 98.76561 0 0 0 10.7832 47.77539h149.54492a85.511353 98.76561 0 0 0 10.69532-47.77539 85.511353 98.76561 0 0 0 -85.51172-98.765629z" fill="#fff"/><circle cx="303.82147" cy="161.56061" fill="#212121" r="32.855053"/><path d="m163.857 67.331085a85.511353 98.76561 0 0 0 -85.509766 98.765625 85.511353 98.76561 0 0 0 11.60352 49.43555h147.843746a85.511353 98.76561 0 0 0 11.57421-49.43555 85.511353 98.76561 0 0 0 -85.51171-98.765625z" fill="#212121"/><path d="m155.56012 68.991241a85.511353 98.76561 0 0 0 -85.511718 98.765629 85.511353 98.76561 0 0 0 10.783202 47.77539h149.544926a85.511353 98.76561 0 0 0 10.69531-47.77539 85.511353 98.76561 0 0 0 -85.51172-98.765629z" fill="#fff"/><circle cx="160.75508" cy="161.56061" fill="#212121" r="32.855053"/></g></svg>